<?xml version="1.0" encoding="UTF-8" standalone="no"?>
<!DOCTYPE svg PUBLIC "-//W3C//DTD SVG 1.1//EN"
 "http://www.w3.org/Graphics/SVG/1.1/DTD/svg11.dtd">
<!-- Generated by graphviz version 2.38.0 (20140413.2041)
 -->
<!-- Title: include/Ark/String.hpp Pages: 1 -->
<svg width="534pt" height="84pt"
 viewBox="0.00 0.00 533.50 84.00" xmlns="http://www.w3.org/2000/svg" xmlns:xlink="http://www.w3.org/1999/xlink">
<g id="graph0" class="graph" transform="scale(1 1) rotate(0) translate(4 80)">
<title>include/Ark/String.hpp</title>
<polygon fill="white" stroke="none" points="-4,4 -4,-80 529.5,-80 529.5,4 -4,4"/>
<!-- Node1 -->
<g id="node1" class="node"><title>Node1</title>
<polygon fill="#bfbfbf" stroke="black" points="190,-56.5 190,-75.5 303,-75.5 303,-56.5 190,-56.5"/>
<text text-anchor="middle" x="246.5" y="-63.5" font-family="Helvetica,sans-Serif" font-size="10.00">include/Ark/String.hpp</text>
</g>
<!-- Node2 -->
<g id="node2" class="node"><title>Node2</title>
<polygon fill="white" stroke="#bfbfbf" points="0,-0.5 0,-19.5 49,-19.5 49,-0.5 0,-0.5"/>
<text text-anchor="middle" x="24.5" y="-7.5" font-family="Helvetica,sans-Serif" font-size="10.00">string.h</text>
</g>
<!-- Node1&#45;&gt;Node2 -->
<g id="edge1" class="edge"><title>Node1&#45;&gt;Node2</title>
<path fill="none" stroke="midnightblue" d="M209.117,-56.4768C173.014,-48.1619 116.554,-34.9397 59.2866,-20.4036"/>
<polygon fill="midnightblue" stroke="midnightblue" points="59.8981,-16.9476 49.3433,-17.8684 58.1686,-23.7306 59.8981,-16.9476"/>
</g>
<!-- Node3 -->
<g id="node3" class="node"><title>Node3</title>
<polygon fill="white" stroke="#bfbfbf" points="67,-0.5 67,-19.5 108,-19.5 108,-0.5 67,-0.5"/>
<text text-anchor="middle" x="87.5" y="-7.5" font-family="Helvetica,sans-Serif" font-size="10.00">string</text>
</g>
<!-- Node1&#45;&gt;Node3 -->
<g id="edge2" class="edge"><title>Node1&#45;&gt;Node3</title>
<path fill="none" stroke="midnightblue" d="M221.306,-56.4435C193.141,-46.8782 147.558,-31.3969 117.555,-21.2075"/>
<polygon fill="midnightblue" stroke="midnightblue" points="118.62,-17.8728 108.026,-17.971 116.369,-24.501 118.62,-17.8728"/>
</g>
<!-- Node4 -->
<g id="node4" class="node"><title>Node4</title>
<polygon fill="white" stroke="#bfbfbf" points="126,-0.5 126,-19.5 181,-19.5 181,-0.5 126,-0.5"/>
<text text-anchor="middle" x="153.5" y="-7.5" font-family="Helvetica,sans-Serif" font-size="10.00">String.inl</text>
</g>
<!-- Node1&#45;&gt;Node4 -->
<g id="edge3" class="edge"><title>Node1&#45;&gt;Node4</title>
<path fill="none" stroke="midnightblue" d="M231.558,-56.324C216.915,-47.8215 194.366,-34.7288 177.262,-24.7975"/>
<polygon fill="midnightblue" stroke="midnightblue" points="178.81,-21.6491 168.405,-19.6545 175.295,-27.7027 178.81,-21.6491"/>
</g>
<!-- Node5 -->
<g id="node5" class="node"><title>Node5</title>
<polygon fill="white" stroke="#bfbfbf" points="199.5,-0.5 199.5,-19.5 237.5,-19.5 237.5,-0.5 199.5,-0.5"/>
<text text-anchor="middle" x="218.5" y="-7.5" font-family="Helvetica,sans-Serif" font-size="10.00">tuple</text>
</g>
<!-- Node1&#45;&gt;Node5 -->
<g id="edge4" class="edge"><title>Node1&#45;&gt;Node5</title>
<path fill="none" stroke="midnightblue" d="M241.876,-56.083C238.044,-48.6913 232.476,-37.9533 227.735,-28.8111"/>
<polygon fill="midnightblue" stroke="midnightblue" points="230.748,-27.0175 223.038,-19.7511 224.534,-30.2398 230.748,-27.0175"/>
</g>
<!-- Node6 -->
<g id="node6" class="node"><title>Node6</title>
<polygon fill="white" stroke="#bfbfbf" points="255.5,-0.5 255.5,-19.5 295.5,-19.5 295.5,-0.5 255.5,-0.5"/>
<text text-anchor="middle" x="275.5" y="-7.5" font-family="Helvetica,sans-Serif" font-size="10.00">utility</text>
</g>
<!-- Node1&#45;&gt;Node6 -->
<g id="edge5" class="edge"><title>Node1&#45;&gt;Node6</title>
<path fill="none" stroke="midnightblue" d="M251.289,-56.083C255.258,-48.6913 261.025,-37.9533 265.935,-28.8111"/>
<polygon fill="midnightblue" stroke="midnightblue" points="269.153,-30.217 270.8,-19.7511 262.986,-26.9051 269.153,-30.217"/>
</g>
<!-- Node7 -->
<g id="node7" class="node"><title>Node7</title>
<polygon fill="white" stroke="#bfbfbf" points="313.5,-0.5 313.5,-19.5 375.5,-19.5 375.5,-0.5 313.5,-0.5"/>
<text text-anchor="middle" x="344.5" y="-7.5" font-family="Helvetica,sans-Serif" font-size="10.00">type_traits</text>
</g>
<!-- Node1&#45;&gt;Node7 -->
<g id="edge6" class="edge"><title>Node1&#45;&gt;Node7</title>
<path fill="none" stroke="midnightblue" d="M262.245,-56.324C277.819,-47.7428 301.877,-34.486 319.959,-24.5224"/>
<polygon fill="midnightblue" stroke="midnightblue" points="321.724,-27.546 328.794,-19.6545 318.346,-21.4152 321.724,-27.546"/>
</g>
<!-- Node8 -->
<g id="node8" class="node"><title>Node8</title>
<polygon fill="white" stroke="#bfbfbf" points="394,-0.5 394,-19.5 453,-19.5 453,-0.5 394,-0.5"/>
<text text-anchor="middle" x="423.5" y="-7.5" font-family="Helvetica,sans-Serif" font-size="10.00">stdexcept</text>
</g>
<!-- Node1&#45;&gt;Node8 -->
<g id="edge7" class="edge"><title>Node1&#45;&gt;Node8</title>
<path fill="none" stroke="midnightblue" d="M274.546,-56.4435C304.582,-47.2801 352.413,-32.6876 385.743,-22.5192"/>
<polygon fill="midnightblue" stroke="midnightblue" points="387.042,-25.7822 395.585,-19.5164 384.999,-19.0869 387.042,-25.7822"/>
</g>
<!-- Node9 -->
<g id="node9" class="node"><title>Node9</title>
<polygon fill="white" stroke="#bfbfbf" points="471.5,-0.5 471.5,-19.5 525.5,-19.5 525.5,-0.5 471.5,-0.5"/>
<text text-anchor="middle" x="498.5" y="-7.5" font-family="Helvetica,sans-Serif" font-size="10.00">iostream</text>
</g>
<!-- Node1&#45;&gt;Node9 -->
<g id="edge8" class="edge"><title>Node1&#45;&gt;Node9</title>
<path fill="none" stroke="midnightblue" d="M290.051,-56.4534C331.619,-48.1782 396.25,-35.0073 461.371,-20.1912"/>
<polygon fill="midnightblue" stroke="midnightblue" points="462.433,-23.5387 471.401,-17.8968 460.872,-16.715 462.433,-23.5387"/>
</g>
</g>
</svg>
