<?xml version="1.0" encoding="UTF-8" standalone="no"?>
<!DOCTYPE svg PUBLIC "-//W3C//DTD SVG 1.1//EN"
 "http://www.w3.org/Graphics/SVG/1.1/DTD/svg11.dtd">
<!-- Generated by graphviz version 2.38.0 (20140413.2041)
 -->
<!-- Title: include/Ark/String.hpp Pages: 1 -->
<svg width="461pt" height="84pt"
 viewBox="0.00 0.00 461.00 84.00" xmlns="http://www.w3.org/2000/svg" xmlns:xlink="http://www.w3.org/1999/xlink">
<g id="graph0" class="graph" transform="scale(1 1) rotate(0) translate(4 80)">
<title>include/Ark/String.hpp</title>
<polygon fill="white" stroke="none" points="-4,4 -4,-80 457,-80 457,4 -4,4"/>
<!-- Node1 -->
<g id="node1" class="node"><title>Node1</title>
<polygon fill="#bfbfbf" stroke="black" points="162,-56.5 162,-75.5 275,-75.5 275,-56.5 162,-56.5"/>
<text text-anchor="middle" x="218.5" y="-63.5" font-family="Helvetica,sans-Serif" font-size="10.00">include/Ark/String.hpp</text>
</g>
<!-- Node2 -->
<g id="node2" class="node"><title>Node2</title>
<polygon fill="white" stroke="#bfbfbf" points="0,-0.5 0,-19.5 49,-19.5 49,-0.5 0,-0.5"/>
<text text-anchor="middle" x="24.5" y="-7.5" font-family="Helvetica,sans-Serif" font-size="10.00">string.h</text>
</g>
<!-- Node1&#45;&gt;Node2 -->
<g id="edge1" class="edge"><title>Node1&#45;&gt;Node2</title>
<path fill="none" stroke="midnightblue" d="M187.76,-56.4435C152.7,-46.6846 95.5185,-30.768 58.973,-20.5956"/>
<polygon fill="midnightblue" stroke="midnightblue" points="59.8203,-17.1984 49.248,-17.8886 57.9432,-23.9421 59.8203,-17.1984"/>
</g>
<!-- Node3 -->
<g id="node3" class="node"><title>Node3</title>
<polygon fill="white" stroke="#bfbfbf" points="67,-0.5 67,-19.5 108,-19.5 108,-0.5 67,-0.5"/>
<text text-anchor="middle" x="87.5" y="-7.5" font-family="Helvetica,sans-Serif" font-size="10.00">string</text>
</g>
<!-- Node1&#45;&gt;Node3 -->
<g id="edge2" class="edge"><title>Node1&#45;&gt;Node3</title>
<path fill="none" stroke="midnightblue" d="M197.743,-56.4435C176.184,-47.5566 142.237,-33.5632 117.706,-23.4514"/>
<polygon fill="midnightblue" stroke="midnightblue" points="118.739,-20.0917 108.16,-19.5164 116.072,-26.5634 118.739,-20.0917"/>
</g>
<!-- Node4 -->
<g id="node4" class="node"><title>Node4</title>
<polygon fill="white" stroke="#bfbfbf" points="126,-0.5 126,-19.5 181,-19.5 181,-0.5 126,-0.5"/>
<text text-anchor="middle" x="153.5" y="-7.5" font-family="Helvetica,sans-Serif" font-size="10.00">String.inl</text>
</g>
<!-- Node1&#45;&gt;Node4 -->
<g id="edge3" class="edge"><title>Node1&#45;&gt;Node4</title>
<path fill="none" stroke="midnightblue" d="M208.057,-56.324C198.354,-48.2631 183.685,-36.0765 172,-26.3695"/>
<polygon fill="midnightblue" stroke="midnightblue" points="174.062,-23.532 164.133,-19.8339 169.589,-28.9163 174.062,-23.532"/>
</g>
<!-- Node5 -->
<g id="node5" class="node"><title>Node5</title>
<polygon fill="white" stroke="#bfbfbf" points="199.5,-0.5 199.5,-19.5 237.5,-19.5 237.5,-0.5 199.5,-0.5"/>
<text text-anchor="middle" x="218.5" y="-7.5" font-family="Helvetica,sans-Serif" font-size="10.00">tuple</text>
</g>
<!-- Node1&#45;&gt;Node5 -->
<g id="edge4" class="edge"><title>Node1&#45;&gt;Node5</title>
<path fill="none" stroke="midnightblue" d="M218.5,-56.083C218.5,-49.0059 218.5,-38.8611 218.5,-29.9865"/>
<polygon fill="midnightblue" stroke="midnightblue" points="222,-29.751 218.5,-19.7511 215,-29.7511 222,-29.751"/>
</g>
<!-- Node6 -->
<g id="node6" class="node"><title>Node6</title>
<polygon fill="white" stroke="#bfbfbf" points="255.5,-0.5 255.5,-19.5 295.5,-19.5 295.5,-0.5 255.5,-0.5"/>
<text text-anchor="middle" x="275.5" y="-7.5" font-family="Helvetica,sans-Serif" font-size="10.00">utility</text>
</g>
<!-- Node1&#45;&gt;Node6 -->
<g id="edge5" class="edge"><title>Node1&#45;&gt;Node6</title>
<path fill="none" stroke="midnightblue" d="M227.658,-56.324C236.001,-48.4196 248.532,-36.5482 258.677,-26.9377"/>
<polygon fill="midnightblue" stroke="midnightblue" points="261.323,-29.2522 266.175,-19.8339 256.509,-24.1705 261.323,-29.2522"/>
</g>
<!-- Node7 -->
<g id="node7" class="node"><title>Node7</title>
<polygon fill="white" stroke="#bfbfbf" points="313.5,-0.5 313.5,-19.5 375.5,-19.5 375.5,-0.5 313.5,-0.5"/>
<text text-anchor="middle" x="344.5" y="-7.5" font-family="Helvetica,sans-Serif" font-size="10.00">type_traits</text>
</g>
<!-- Node1&#45;&gt;Node7 -->
<g id="edge6" class="edge"><title>Node1&#45;&gt;Node7</title>
<path fill="none" stroke="midnightblue" d="M238.465,-56.4435C259.109,-47.5961 291.563,-33.6875 315.132,-23.5865"/>
<polygon fill="midnightblue" stroke="midnightblue" points="316.816,-26.6727 324.628,-19.5164 314.058,-20.2387 316.816,-26.6727"/>
</g>
<!-- Node8 -->
<g id="node8" class="node"><title>Node8</title>
<polygon fill="white" stroke="#bfbfbf" points="394,-0.5 394,-19.5 453,-19.5 453,-0.5 394,-0.5"/>
<text text-anchor="middle" x="423.5" y="-7.5" font-family="Helvetica,sans-Serif" font-size="10.00">stdexcept</text>
</g>
<!-- Node1&#45;&gt;Node8 -->
<g id="edge7" class="edge"><title>Node1&#45;&gt;Node8</title>
<path fill="none" stroke="midnightblue" d="M250.983,-56.4435C287.049,-46.9432 345.269,-31.6072 383.957,-21.4161"/>
<polygon fill="midnightblue" stroke="midnightblue" points="385.053,-24.747 393.832,-18.8151 383.27,-17.9779 385.053,-24.747"/>
</g>
</g>
</svg>
